<?xml version="1.0" encoding="UTF-8"?>
<svg width="24px" height="24px" viewBox="0 0 24 24" version="1.1" xmlns="http://www.w3.org/2000/svg" xmlns:xlink="http://www.w3.org/1999/xlink">
    <!-- Generator: Sketch 59.1 (86144) - https://sketch.com -->
    <title>Icon_Button_Plus_24_diable</title>
    <desc>Created with Sketch.</desc>
    <g id="Graphic" stroke="none" stroke-width="1" fill="none" fill-rule="evenodd">
        <g id="Icon-/-Button-/-Plus_24_diable" fill="#DDDDDD">
            <g id="Group">
                <path d="M12,4.75 C12.414,4.75 12.75,5.09844444 12.75,5.52777778 L12.75,11 L18.2222222,11 C18.6515556,11 19,11.336 19,11.75 C19,12.164 18.6515556,12.5 18.2222222,12.5 L12.75,12.5 L12.75,17.9722222 C12.75,18.4015556 12.414,18.75 12,18.75 C11.586,18.75 11.25,18.4015556 11.25,17.9722222 L11.25,12.5 L5.77777778,12.5 C5.34844444,12.5 5,12.164 5,11.75 C5,11.336 5.34844444,11 5.77777778,11 L11.25,11 L11.25,5.52777778 C11.25,5.09844444 11.586,4.75 12,4.75 Z" id="Combined-Shape"></path>
            </g>
        </g>
    </g>
</svg>