<svg width="60" height="60" viewBox="0 0 60 60" xmlns="http://www.w3.org/2000/svg">
    <g fill="none" fill-rule="evenodd">
        <path d="M37 32.243a2.587 2.587 0 0 1-1.432-.149l-1.522-.642h.001l-1.205 1.111c-.704.65-1.836.845-2.725.47l-1.521-.642-1.206 1.112c-.703.649-1.835.844-2.724.469l-1.521-.642-1.206 1.112c-.704.649-1.835.844-2.724.469l-1.522-.642-1.205 1.112a2.547 2.547 0 0 1-1.294.619L11 12.757a2.569 2.569 0 0 1 1.432.149l1.522.642 1.205-1.112c.704-.649 1.836-.844 2.724-.469l1.522.642 1.205-1.112c.704-.649 1.836-.844 2.725-.469l1.521.641 1.206-1.111c.703-.65 1.835-.844 2.724-.47l1.521.642 1.205-1.111A2.547 2.547 0 0 1 32.806 9L37 32.243z" fill="#E5E5E5"/>
        <path stroke="#41A569" stroke-width="2" d="m27.05 20.391-2.147-5.821M28.282 20.608l.642-5.504M26.248 21.339l-4.076-3.809"/>
        <path d="M36.489 24.252c1.423 3.858 2.58 16.728-1.328 18.132-3.91 1.404-11.404-9.189-12.827-13.047-1.422-3.858.593-8.124 4.502-9.528 3.908-1.404 8.23.585 9.653 4.443" fill="#E58341"/>
        <path fill="#65C17B" d="m38.974 35.453-6.687-2.402 1.378-10.094 10.827 3.889z"/>
        <path d="m15.913 41.547-2.96-12.177a.475.475 0 0 1 .466-.585h33.347c.311 0 .54.287.467.585l-2.96 12.177A1.915 1.915 0 0 1 42.404 43H17.78c-.888 0-1.66-.601-1.867-1.453" fill="#F2CA71"/>
        <path d="M45.84 20.339c-.031-.011-.062-.013-.093-.023.336-2.186-.92-4.374-3.105-5.16-2.185-.785-4.572.096-5.738 1.983-.03-.011-.056-.03-.086-.041-2.492-.895-5.247.373-6.154 2.832-.906 2.459.378 5.178 2.87 6.073.33.118.665.194 1 .239a4.736 4.736 0 0 0 2.91 3.01 4.827 4.827 0 0 0 4.19-.46c.286.179.592.333.922.452 2.492.895 5.246-.373 6.153-2.832.907-2.46-.377-5.178-2.87-6.073" fill="#41A569"/>
    </g>
</svg>
